<svg width="15" height="19" viewBox="0 0 15 19" xmlns="http://www.w3.org/2000/svg" xmlns:xlink="http://www.w3.org/1999/xlink"><title>ic_share</title><defs><path id="a" d="M.07.192h5.684v5.526H.071z"/></defs><g fill="none" fill-rule="evenodd"><g transform="translate(8.686 .104)"><mask id="b" fill="#fff"><use xlink:href="#a"/></mask><path d="M.646 4.622A2.712 2.712 0 0 1 1.2.752c1.252-.921 3.034-.68 3.981.537.947 1.217.7 2.95-.553 3.87-1.252.92-3.034.68-3.98-.537z" fill="#090B17" mask="url(#b)"/></g><path d="M2.842 9.497l7.987-5.872" stroke="#090B17"/><path d="M13.313 13.73c-1.252-.92-3.034-.68-3.981.538a2.712 2.712 0 0 0 .553 3.87c1.252.92 3.034.68 3.98-.537.947-1.218.7-2.95-.552-3.87" fill="#090B17"/><path d="M2.842 9.497l7.987 5.87" stroke="#090B17"/><path d="M4.852 7.543a2.898 2.898 0 0 0-4.019 0 2.708 2.708 0 0 0 0 3.907 2.898 2.898 0 0 0 4.019 0 2.708 2.708 0 0 0 0-3.907" fill="#090B17"/></g></svg>