<svg xmlns="http://www.w3.org/2000/svg" viewBox="0 0 216.8 285.61"><defs><style>.cls-11{mix-blend-mode:multiply}.cls-3,.cls-5{fill:#fff}.cls-13,.cls-3,.cls-4,.cls-5,.cls-8{stroke:#7da6d3;stroke-miterlimit:10}.cls-4,.cls-8{fill:none}.cls-4,.cls-5{stroke-linecap:round}.cls-11,.cls-12,.cls-9{fill:#b1ccdf}.cls-11,.cls-12{opacity:.2}.cls-13{fill:#e6f4f9}.cls-15{fill:#7da6d3}.cls-19{fill:#fef5f9}</style></defs><g style="isolation:isolate"><g id="Layer_2" data-name="Layer 2"><g id="Layer_1-2" data-name="Layer 1"><path d="M171.45 110.31c-21.82-21.8-80.37-81.66-145.09-33.73S34 130.94 54 167.4s28 108.46 64.41 85.21 166.18-29.28 53.04-142.3z" style="mix-blend-mode:multiply" fill="#ebf6f3"/><path class="cls-3" d="M205.53.5h-64.21A4.33 4.33 0 0 0 137 4.83V45a4.33 4.33 0 0 0 4.33 4.33h4.83v7.08a.77.77 0 0 0 1.32.55l7.62-7.62h50.44a4.33 4.33 0 0 0 4.32-4.34V4.83A4.33 4.33 0 0 0 205.53.5z"/><path class="cls-4" d="M153.23 17.11h40.39M153.23 24.91h40.39M153.23 32.71h18.74"/><path class="cls-3" d="M39.86 156.4h64.21a4.33 4.33 0 0 1 4.33 4.33v40.15a4.33 4.33 0 0 1-4.33 4.33h-4.84v7.08a.77.77 0 0 1-1.32.55l-7.62-7.62H39.86a4.33 4.33 0 0 1-4.33-4.33v-40.15a4.33 4.33 0 0 1 4.33-4.34z"/><path class="cls-5" d="M92.16 173.02h-40.4M92.16 180.81h-40.4M70.5 188.61H51.76"/><path fill="#d3e5ea" d="M77.39 66.74l3.56 18.07 40.48-1.6 2.04-16.47-32.36-8.48-13.72 8.48z"/><path fill="#b1d4dd" d="M122.42 75.24l-3.48 2.28-7-5.99-34.13-2.03.86 3.78 4.71 3.22 20.87 3.63 11.81-10.63 7.94-.62-1.2 3.28-.38 3.08z"/><path class="cls-8" d="M77.39 66.74l3.56 18.07 40.48-1.6 2.04-16.47-32.36-8.48-13.72 8.48z"/><path class="cls-3" d="M85.87 84.81a4.24 4.24 0 1 1-4.24-4.24 4.24 4.24 0 0 1 4.24 4.24zm34.35-4.24a4.24 4.24 0 1 0 4.24 4.24 4.24 4.24 0 0 0-4.24-4.24z"/><path class="cls-9" d="M121.88 80.9a4.24 4.24 0 1 0 0 7.82zM80.13 88.77a4.24 4.24 0 1 0 0-7.91z"/><path d="M127.71 137.7c-3.46-14-14.14-24.16-26.78-24.16s-23.32 10.18-26.79 24.16" fill="#ceebeb" stroke="#7da6d3" stroke-miterlimit="10"/><path class="cls-3" d="M97.61 105.81h6.64V117a3.32 3.32 0 0 1-3.32 3.32 3.32 3.32 0 0 1-3.32-3.32v-11.19z"/><path class="cls-11" d="M97.61 111.32a11.67 11.67 0 0 0 3.46.5 11.9 11.9 0 0 0 3.18-.42v-5.59h-6.64z"/><path class="cls-8" d="M97.61 105.81h6.64V117a3.32 3.32 0 0 1-3.32 3.32 3.32 3.32 0 0 1-3.32-3.32v-11.19z"/><path class="cls-3" d="M81.88 66.74H120V90.8a19 19 0 0 1-19 19 19 19 0 0 1-19-19V66.74h-.12z"/><path class="cls-12" d="M100.93 96.31c-10.52 0-19 1.49-19-9v2.19a19 19 0 0 0 19 19 19 19 0 0 0 19-19v-2.23c.07 10.52-8.48 9.04-19 9.04z"/><path class="cls-13" d="M100.93 97.6c-10.52 0-19 1.49-19-9v2.2a19 19 0 0 0 19 19 19 19 0 0 0 19-19v-2.24c.07 10.52-8.48 9.04-19 9.04z"/><path class="cls-4" d="M98.08 101.51l5.69.09"/><path d="M99.1 106.72a1.81 1.81 0 1 1 3.62 0" fill="#e6f4f9" stroke-linecap="round" stroke="#7da6d3" stroke-miterlimit="10"/><path class="cls-12" d="M81.88 77.12a55.1 55.1 0 0 0 17.22 3c11.5 0 17.73-2.87 20.87-5.17v-8.21H81.88z"/><path class="cls-13" d="M111.39 45c10.56 0 15.89 7 15.89 13.49 0 6.64-1.09 19-23.62 19-23.33.03-37.21-10.49-29.33-31.81a.15.15 0 0 1 .29 0c.37 6.56 5 9.77 10.51 9.79C92.85 55.53 99.52 45 111.39 45z"/><path class="cls-15" d="M47.29 68.32c0-4.64 5.69-5.18 5.69-7.87 0-1.21-.9-2.22-3-2.22a6.23 6.23 0 0 0-4.79 2.42L42 57.1a11.14 11.14 0 0 1 8.53-3.78c5 0 8.11 2.53 8.11 6.16 0 5.69-6.51 6.12-6.51 9.39a2.35 2.35 0 0 0 .7 1.64l-4.25 1.25a5 5 0 0 1-1.29-3.44zm0 8.65a3.16 3.16 0 1 1 3.16 3.16A3.19 3.19 0 0 1 47.29 77zM65 93.17c0-2.36 2.89-2.63 2.89-4 0-.61-.46-1.13-1.54-1.13a3.17 3.17 0 0 0-2.44 1.23l-1.6-1.8a5.66 5.66 0 0 1 4.34-1.92c2.55 0 4.12 1.29 4.12 3.13 0 2.89-3.31 3.11-3.31 4.77a1.19 1.19 0 0 0 .36.83l-2.16.63a2.53 2.53 0 0 1-.66-1.74zm0 4.4a1.6 1.6 0 1 1 1.6 1.6 1.62 1.62 0 0 1-1.6-1.61zM136.55 80.78c0-3.6 4.42-4 4.42-6.11 0-.94-.7-1.72-2.36-1.72a4.84 4.84 0 0 0-3.72 1.88l-2.45-2.75a8.65 8.65 0 0 1 6.62-2.94c3.9 0 6.29 2 6.29 4.78 0 4.42-5.05 4.75-5.05 7.29a1.82 1.82 0 0 0 .54 1.27l-3.3 1a3.86 3.86 0 0 1-.99-2.7zm0 6.72a2.45 2.45 0 1 1 2.45 2.45 2.48 2.48 0 0 1-2.45-2.45zM127.34 112.68c0-2.51 3.08-2.81 3.08-4.26 0-.65-.49-1.2-1.65-1.2a3.38 3.38 0 0 0-2.6 1.31l-1.71-1.92a6 6 0 0 1 4.62-2c2.72 0 4.39 1.37 4.39 3.34 0 3.08-3.53 3.31-3.53 5.09a1.27 1.27 0 0 0 .38.89l-2.3.68a2.69 2.69 0 0 1-.68-1.93zm0 4.69a1.71 1.71 0 1 1 1.71 1.71 1.73 1.73 0 0 1-1.71-1.71z"/><path class="cls-13" d="M147.88 198.27c17 1.08 22.33 11 22.33 11 7.43 2.63 10.13 6.51 5.87 12.21 7 9.18 7 14.57-2.1 15.11 0 0 1.35 11.28 1.4 13.71.08 3.82-.72 10-8 9.22-6.92-.75-21.32-2.65-21.32-2.65s-17.55 8.21-25 3c-12.24-8.64-2.63-35.2-2.63-35.2-5.26-1.47-4.49-14.8 3.66-11.61.04-.06 6.51-14.8 25.79-14.79z"/><path class="cls-3" d="M131.54 236.6a4.24 4.24 0 1 1-4.24-4.24 4.24 4.24 0 0 1 4.24 4.24zm34.35-4.24a4.24 4.24 0 1 0 4.24 4.24 4.24 4.24 0 0 0-4.23-4.24z"/><g style="mix-blend-mode:multiply" opacity=".2"><path class="cls-9" d="M167.47 232.69a4.24 4.24 0 1 0 0 7.82zM125.72 240.56a4.24 4.24 0 1 0 0-7.91z"/></g><path d="M173.38 285.49c-3.46-14-14.14-24.16-26.78-24.16s-23.32 10.18-26.78 24.16" fill="#efe6f2" stroke="#7da6d3" stroke-miterlimit="10"/><path class="cls-3" d="M143.28 253.61h6.64v11.16a3.32 3.32 0 0 1-3.32 3.32 3.32 3.32 0 0 1-3.32-3.32v-11.16z"/><path class="cls-11" d="M143.28 259.11a11.67 11.67 0 0 0 3.46.5 11.9 11.9 0 0 0 3.18-.42v-5.59h-6.64z"/><path class="cls-8" d="M143.28 253.61h6.64v11.16a3.32 3.32 0 0 1-3.32 3.32 3.32 3.32 0 0 1-3.32-3.32v-11.16z"/><path d="M165.64 220.54v18.05a19 19 0 0 1-19 19 19 19 0 0 1-19-19V226c0-.38-.19-1.42.55-1.42 2.75 0 9.06-1.46 10.37-7.71 5.31 9.13 21.13 8.13 28.74 2.4" fill="#fff"/><path class="cls-12" d="M151.79 223.68c-7.54-.08-13.31-6.76-13.31-6.76l-1.78 3.82-4.2 3a47 47 0 0 1-4.95 1v2.67a16.52 16.52 0 0 0 11.25-5c7.79 5.42 22.77 5.67 28.41-3a31.68 31.68 0 0 1-15.42 4.27z"/><path class="cls-4" d="M165.64 220.54v18.05a19 19 0 0 1-19 19 19 19 0 0 1-19-19V226c0-.38-.19-1.42.55-1.42 2.75 0 9.06-1.46 10.37-7.71 5.31 9.13 21.13 8.13 28.74 2.4M143.76 248.3l5.68.1"/><circle class="cls-19" cx="136.7" cy="240.26" r="4.2"/><circle class="cls-19" cx="156.5" cy="240.26" r="4.2"/><path class="cls-15" d="M98.36 245.7a3 3 0 0 1 3-3 3 3 0 1 1 0 6 3 3 0 0 1-3-3zm.89-5.48l-.78-16.77h5.7l-.75 16.77zM192 235.7a3 3 0 0 1 3-3 3 3 0 1 1 0 6 3 3 0 0 1-3-3zm.89-5.48l-.78-16.77h5.7l-.75 16.77zM178.74 274.27a2.4 2.4 0 0 1 2.37-2.4 2.38 2.38 0 1 1 0 4.76 2.39 2.39 0 0 1-2.37-2.36zm.71-4.35l-.62-13.31h4.53l-.59 13.31zM113.88 202.87a2 2 0 0 1 2-2 2 2 0 1 1 0 4 2 2 0 0 1-2-2zm.59-3.64l-.47-11.14h3.79l-.49 11.14z"/></g></g></g></svg>