<svg xmlns="http://www.w3.org/2000/svg" width="65" height="18.8" viewBox="0 0 65 18.8"><title>logojoy-logo-nocircle</title><path d="M8.8 12.9V15H0V1.2h2.5v11.7zm10-3.1a6.8 6.8 0 0 1-.4 2.3 5.1 5.1 0 0 1-1 1.7 4.6 4.6 0 0 1-1.6 1.1 5.1 5.1 0 0 1-2.1.4 5.1 5.1 0 0 1-2-.4 4.6 4.6 0 0 1-1.6-1.1 5.1 5.1 0 0 1-1-1.7 6.6 6.6 0 0 1-.4-2.3 6.5 6.5 0 0 1 .4-2.3 5 5 0 0 1 1-1.7 4.6 4.6 0 0 1 1.6-1.1 5.1 5.1 0 0 1 2-.4 5.2 5.2 0 0 1 2 .4 4.5 4.5 0 0 1 1.6 1.1 5.2 5.2 0 0 1 1 1.7 6.5 6.5 0 0 1 .4 2.3zm-2.5 0a4.1 4.1 0 0 0-.7-2.5 2.2 2.2 0 0 0-1.9-.9 2.2 2.2 0 0 0-1.9.9 4.1 4.1 0 0 0-.7 2.5 4.2 4.2 0 0 0 .7 2.5 2.2 2.2 0 0 0 1.9.9 2.2 2.2 0 0 0 1.9-.9 4.2 4.2 0 0 0 .7-2.5zm5.7-.3a3.2 3.2 0 0 0 .7 2.3 2.3 2.3 0 0 0 1.7.7l1.1-.2.8-.4V6.5h-1.6a2.4 2.4 0 0 0-2 .9 3.5 3.5 0 0 0-.7 2.1zm6.8 4.5a4.7 4.7 0 0 1-1.3 3.7 5.6 5.6 0 0 1-3.9 1.2l-1.9-.2-1.7-.4.4-2.1 1.4.4 1.7.2a2.9 2.9 0 0 0 2.1-.6 2.4 2.4 0 0 0 .6-1.8V14l-1 .4-1.4.2a5 5 0 0 1-1.8-.3 3.9 3.9 0 0 1-1.4-.9 4.3 4.3 0 0 1-.9-1.6 6.4 6.4 0 0 1-.3-2.2 6.1 6.1 0 0 1 .4-2.1 4.5 4.5 0 0 1 1-1.6 4.7 4.7 0 0 1 1.6-1.1 5.9 5.9 0 0 1 2.2-.4l2.2.2 1.8.4zm11.3-4.2a6.8 6.8 0 0 1-.4 2.3 5.1 5.1 0 0 1-1 1.7 4.6 4.6 0 0 1-1.6 1.1 5.1 5.1 0 0 1-2.1.4 5.1 5.1 0 0 1-2-.4 4.6 4.6 0 0 1-1.6-1.1 5.1 5.1 0 0 1-1-1.7 6.6 6.6 0 0 1-.4-2.3 6.5 6.5 0 0 1 .4-2.3 5.1 5.1 0 0 1 1-1.7A4.6 4.6 0 0 1 33 4.7a5.1 5.1 0 0 1 2-.4 5.2 5.2 0 0 1 2 .4 4.4 4.4 0 0 1 1.6 1.1 5.2 5.2 0 0 1 1 1.7 6.5 6.5 0 0 1 .4 2.3zm-2.5 0a4.1 4.1 0 0 0-.6-2.5 2.4 2.4 0 0 0-3.7 0 4.1 4.1 0 0 0-.7 2.5 4.2 4.2 0 0 0 .7 2.5 2.4 2.4 0 0 0 3.7 0 4.2 4.2 0 0 0 .7-2.5zm2.4 9h-.7l-.8-.2.3-2h1.1a1.3 1.3 0 0 0 1.2-.5 2.6 2.6 0 0 0 .3-1.5v-10h2.4v10.2a4.2 4.2 0 0 1-1 3 3.8 3.8 0 0 1-2.8 1zm4-17.3a1.4 1.4 0 0 1-.4 1.1 1.5 1.5 0 0 1-1 .4 1.5 1.5 0 0 1-1.1-.4 1.4 1.4 0 0 1-.4-1.1 1.4 1.4 0 0 1 .4-1.1 1.5 1.5 0 0 1 1.1-.4 1.5 1.5 0 0 1 1 .4 1.4 1.4 0 0 1 .4 1.1zm11.2 8.3a6.8 6.8 0 0 1-.4 2.3 5 5 0 0 1-1 1.7 4.6 4.6 0 0 1-1.6 1.1 5.1 5.1 0 0 1-2.1.4 5.1 5.1 0 0 1-2-.4 4.6 4.6 0 0 1-1.6-1.1 5.2 5.2 0 0 1-1-1.7 6.6 6.6 0 0 1-.4-2.3 6.5 6.5 0 0 1 .4-2.3 5.1 5.1 0 0 1 1-1.7 4.6 4.6 0 0 1 1.6-1.1 5.1 5.1 0 0 1 2-.4 5.2 5.2 0 0 1 2 .4 4.5 4.5 0 0 1 1.6 1.1 5.2 5.2 0 0 1 1 1.7 6.5 6.5 0 0 1 .4 2.3zm-2.5 0a4.1 4.1 0 0 0-.7-2.5 2.4 2.4 0 0 0-3.7 0 4.1 4.1 0 0 0-.7 2.5 4.2 4.2 0 0 0 .7 2.5 2.4 2.4 0 0 0 3.7 0 4.2 4.2 0 0 0 .7-2.5zM65 4.6a76.2 76.2 0 0 1-3.8 10.8l-.8 1.5a4.6 4.6 0 0 1-.9 1.1l-1.2.6-1.5.2h-1.1l-.8-.3.4-1.9 1.4.3a2.2 2.2 0 0 0 1.5-.5 3.7 3.7 0 0 0 .9-1.4Q58 12.7 57 10.1a53.1 53.1 0 0 1-1.9-5.5h2.6l.5 1.8.6 2 .7 2 .8 1.9q.6-1.8 1.2-3.8l1-3.9zm0 0" fill="#343434" data-name="Isolation Mode"/></svg>